<svg xmlns="http://www.w3.org/2000/svg" width="1410" height="582" viewBox="0 0 1410 582" fill="none"><path d="M323.994 433.7H330.707V468H323.994V453.79H311.254V468H304.492V433.7H311.254V447.322H323.994V433.7ZM360.795 468L353.886 456.093H348.741V468H341.979V433.7H355.699C362.02 433.7 367.116 438.796 367.116 445.068C367.116 449.38 364.421 453.251 360.501 455.064L368.096 468H360.795ZM348.741 440.021V450.164H355.699C358.247 450.164 360.354 447.91 360.354 445.068C360.354 442.226 358.247 440.021 355.699 440.021H348.741ZM397.46 440.168H383.74V448.302H397.068V454.77H383.74V468H376.978V433.7H397.46V440.168ZM415.85 433.651L412.175 447.273H407.03L408.99 433.651H415.85ZM436.531 468.686C429.524 468.686 424.918 465.305 423.056 460.209L428.838 456.828C430.063 460.013 432.464 462.071 436.727 462.071C440.794 462.071 442.215 460.356 442.215 458.445C442.215 455.897 439.912 454.917 434.816 453.447C429.573 451.928 424.477 449.723 424.477 443.206C424.477 436.738 429.867 433.014 435.747 433.014C441.382 433.014 445.694 435.905 447.997 440.707L442.313 443.99C441.088 441.393 439.226 439.58 435.747 439.58C432.905 439.58 431.239 441.05 431.239 443.01C431.239 445.117 432.562 446.244 437.756 447.812C443.195 449.527 448.977 451.34 448.977 458.347C448.977 464.766 443.832 468.686 436.531 468.686ZM488.226 433.7C494.841 433.7 499.937 438.796 499.937 445.215C499.937 451.634 494.841 456.73 488.226 456.73H482.199V468H475.437V433.7H488.226ZM488.226 450.409C491.117 450.409 493.224 448.155 493.224 445.215C493.224 442.226 491.117 440.021 488.226 440.021H482.199V450.409H488.226ZM528.056 468L521.147 456.093H516.002V468H509.24V433.7H522.96C529.281 433.7 534.377 438.796 534.377 445.068C534.377 449.38 531.682 453.251 527.762 455.064L535.357 468H528.056ZM516.002 440.021V450.164H522.96C525.508 450.164 527.615 447.91 527.615 445.068C527.615 442.226 525.508 440.021 522.96 440.021H516.002ZM560.075 468.686C550.177 468.686 542.288 460.846 542.288 450.85C542.288 440.805 550.177 433.014 560.075 433.014C569.973 433.014 577.911 440.805 577.911 450.85C577.911 460.846 569.973 468.686 560.075 468.686ZM560.075 462.071C566.298 462.071 571.149 457.416 571.149 450.85C571.149 444.235 566.298 439.58 560.075 439.58C553.852 439.58 549.001 444.235 549.001 450.85C549.001 457.416 553.852 462.071 560.075 462.071ZM621.226 449.576V452.222C621.226 462.12 614.219 468.686 604.37 468.686C593.639 468.686 585.995 460.699 585.995 450.899C585.995 440.952 593.737 433.014 603.978 433.014C610.495 433.014 616.032 436.297 618.923 441.001L613.141 444.333C611.573 441.589 608.094 439.58 603.929 439.58C597.412 439.58 592.708 444.382 592.708 450.899C592.708 457.269 597.265 462.071 604.419 462.071C609.809 462.071 613.239 459.474 614.415 455.554H604.027V449.576H621.226ZM649.752 468L642.843 456.093H637.698V468H630.936V433.7H644.656C650.977 433.7 656.073 438.796 656.073 445.068C656.073 449.38 653.378 453.251 649.458 455.064L657.053 468H649.752ZM637.698 440.021V450.164H644.656C647.204 450.164 649.311 447.91 649.311 445.068C649.311 442.226 647.204 440.021 644.656 440.021H637.698ZM687.984 468L685.926 461.826H672.255L670.197 468H662.896L674.901 433.7H683.28L695.334 468H687.984ZM674.411 455.505H683.819L679.115 441.491L674.411 455.505ZM737.13 433.7V468H730.417V445.754L720.764 461.679H719.98L710.327 445.803V468H703.565V433.7H710.523L720.372 449.919L730.172 433.7H737.13ZM788.258 433.7V440.168H778.997V468H772.235V440.168H763.023V433.7H788.258ZM811.19 468.686C801.292 468.686 793.403 460.846 793.403 450.85C793.403 440.805 801.292 433.014 811.19 433.014C821.088 433.014 829.026 440.805 829.026 450.85C829.026 460.846 821.088 468.686 811.19 468.686ZM811.19 462.071C817.413 462.071 822.264 457.416 822.264 450.85C822.264 444.235 817.413 439.58 811.19 439.58C804.967 439.58 800.116 444.235 800.116 450.85C800.116 457.416 804.967 462.071 811.19 462.071ZM877.879 468L875.821 461.826H862.15L860.092 468H852.791L864.796 433.7H873.175L885.229 468H877.879ZM864.306 455.505H873.714L869.01 441.491L864.306 455.505ZM907.081 433.7C916.538 433.7 923.594 441.197 923.594 450.85C923.594 460.503 916.538 468 907.081 468H893.459V433.7H907.081ZM907.081 461.532C913.01 461.532 917.126 457.171 917.126 450.85C917.126 444.529 913.01 440.168 907.081 440.168H900.221V461.532H907.081ZM940.236 468L928.721 433.7H936.071L944.45 460.062L952.78 433.7H960.179L948.615 468H940.236ZM988.473 468L986.415 461.826H972.744L970.686 468H963.385L975.39 433.7H983.769L995.823 468H988.473ZM974.9 455.505H984.308L979.604 441.491L974.9 455.505ZM1023.9 433.7H1030.66V468H1025.52L1010.82 447.028V468H1004.05V433.7H1009.2L1023.9 454.623V433.7ZM1058.19 468.686C1047.8 468.686 1040.36 460.846 1040.36 450.85C1040.36 440.805 1047.8 433.014 1058.19 433.014C1064.46 433.014 1070 436.199 1072.94 441.099L1067.11 444.48C1065.44 441.442 1062.11 439.58 1058.19 439.58C1051.48 439.58 1047.07 444.235 1047.07 450.85C1047.07 457.416 1051.48 462.071 1058.19 462.071C1062.11 462.071 1065.49 460.209 1067.11 457.22L1072.94 460.601C1070.05 465.501 1064.51 468.686 1058.19 468.686ZM1088.76 461.532H1103.21V468H1081.99V433.7H1102.97V440.168H1088.76V447.469H1101.74V453.839H1088.76V461.532ZM371.064 528L369.006 521.826H355.335L353.277 528H345.976L357.981 493.7H366.36L378.414 528H371.064ZM357.491 515.505H366.899L362.195 501.491L357.491 515.505ZM386.644 493.7H393.406V528H386.644V493.7ZM443.855 528L441.797 521.826H428.126L426.068 528H418.767L430.772 493.7H439.151L451.205 528H443.855ZM430.282 515.505H439.69L434.986 501.491L430.282 515.505ZM470.381 528.686C463.374 528.686 458.768 525.305 456.906 520.209L462.688 516.828C463.913 520.013 466.314 522.071 470.577 522.071C474.644 522.071 476.065 520.356 476.065 518.445C476.065 515.897 473.762 514.917 468.666 513.447C463.423 511.928 458.327 509.723 458.327 503.206C458.327 496.738 463.717 493.014 469.597 493.014C475.232 493.014 479.544 495.905 481.847 500.707L476.163 503.99C474.938 501.393 473.076 499.58 469.597 499.58C466.755 499.58 465.089 501.05 465.089 503.01C465.089 505.117 466.412 506.244 471.606 507.812C477.045 509.527 482.827 511.34 482.827 518.347C482.827 524.766 477.682 528.686 470.381 528.686ZM531.338 528L529.28 521.826H515.609L513.551 528H506.25L518.255 493.7H526.634L538.688 528H531.338ZM517.765 515.505H527.173L522.469 501.491L517.765 515.505ZM586.755 493.7V500.168H577.494V528H570.732V500.168H561.52V493.7H586.755ZM609.687 528.686C599.789 528.686 591.9 520.846 591.9 510.85C591.9 500.805 599.789 493.014 609.687 493.014C619.585 493.014 627.523 500.805 627.523 510.85C627.523 520.846 619.585 528.686 609.687 528.686ZM609.687 522.071C615.91 522.071 620.761 517.416 620.761 510.85C620.761 504.235 615.91 499.58 609.687 499.58C603.464 499.58 598.613 504.235 598.613 510.85C598.613 517.416 603.464 522.071 609.687 522.071ZM653.395 528.686C643.497 528.686 635.608 520.846 635.608 510.85C635.608 500.805 643.497 493.014 653.395 493.014C663.293 493.014 671.231 500.805 671.231 510.85C671.231 520.846 663.293 528.686 653.395 528.686ZM653.395 522.071C659.618 522.071 664.469 517.416 664.469 510.85C664.469 504.235 659.618 499.58 653.395 499.58C647.172 499.58 642.321 504.235 642.321 510.85C642.321 517.416 647.172 522.071 653.395 522.071ZM687.645 521.532H700.728V528H680.883V493.7H687.645V521.532ZM742.839 528.686C732.941 528.686 725.052 520.846 725.052 510.85C725.052 500.805 732.941 493.014 742.839 493.014C752.737 493.014 760.675 500.805 760.675 510.85C760.675 520.846 752.737 528.686 742.839 528.686ZM742.839 522.071C749.062 522.071 753.913 517.416 753.913 510.85C753.913 504.235 749.062 499.58 742.839 499.58C736.616 499.58 731.765 504.235 731.765 510.85C731.765 517.416 736.616 522.071 742.839 522.071ZM790.809 500.168H777.089V508.302H790.417V514.77H777.089V528H770.327V493.7H790.809V500.168ZM838.269 500.168H824.549V508.302H837.877V514.77H824.549V528H817.787V493.7H838.269V500.168ZM866.912 528L860.003 516.093H854.858V528H848.096V493.7H861.816C868.137 493.7 873.233 498.796 873.233 505.068C873.233 509.38 870.538 513.251 866.618 515.064L874.213 528H866.912ZM854.858 500.021V510.164H861.816C864.364 510.164 866.471 507.91 866.471 505.068C866.471 502.226 864.364 500.021 861.816 500.021H854.858ZM889.856 521.532H904.311V528H883.094V493.7H904.066V500.168H889.856V507.469H902.841V513.839H889.856V521.532ZM920.74 521.532H935.195V528H913.978V493.7H934.95V500.168H920.74V507.469H933.725V513.839H920.74V521.532ZM958.483 493.7C967.94 493.7 974.996 501.197 974.996 510.85C974.996 520.503 967.94 528 958.483 528H944.861V493.7H958.483ZM958.483 521.532C964.412 521.532 968.528 517.171 968.528 510.85C968.528 504.529 964.412 500.168 958.483 500.168H951.623V521.532H958.483ZM1000.91 528.686C991.014 528.686 983.125 520.846 983.125 510.85C983.125 500.805 991.014 493.014 1000.91 493.014C1010.81 493.014 1018.75 500.805 1018.75 510.85C1018.75 520.846 1010.81 528.686 1000.91 528.686ZM1000.91 522.071C1007.13 522.071 1011.99 517.416 1011.99 510.85C1011.99 504.235 1007.13 499.58 1000.91 499.58C994.689 499.58 989.838 504.235 989.838 510.85C989.838 517.416 994.689 522.071 1000.91 522.071ZM1061.97 493.7V528H1055.25V505.754L1045.6 521.679H1044.82L1035.16 505.803V528H1028.4V493.7H1035.36L1045.21 509.919L1055.01 493.7H1061.97Z" fill="white"></path><path d="M597.763 111.097C605.986 126.478 610.156 144.406 610.156 164.382C610.156 195.61 599.214 220.516 576.705 240.525C571.957 244.745 566.866 248.621 561.529 252.234C565.51 254.35 569.428 256.558 573.256 258.881C577.244 255.977 581.103 252.906 584.794 249.625C610.053 227.172 622.331 199.289 622.331 164.382C622.331 112.662 596.705 83.1596 575.208 67.5175C549.236 48.6194 518.691 41.9141 500.426 41.9141V54.0894C516.864 54.0894 544.436 60.1844 568.044 77.3624C580.732 86.5944 590.73 97.9445 597.763 111.097Z" fill="#D7F05A"></path><path d="M473.75 296.145C446.696 310.206 425.99 326.99 425.99 355.631H438.165C438.165 341.72 444.584 330.34 458.366 319.821C466.588 313.545 476.829 307.991 488.091 302.592C487.636 302.389 487.182 302.186 486.723 301.981C482.478 300.086 478.138 298.148 473.75 296.145Z" fill="#D7F05A"></path><path d="M507.463 262.004C484.286 251.492 460.319 240.622 442.745 225.524C423.366 208.875 414.34 189.493 414.34 164.53C414.34 131.012 430.691 110.436 444.409 99.0762C460.207 85.9937 481.655 77.865 500.392 77.8592C519.128 77.865 540.577 85.9937 556.375 99.0762C570.092 110.436 586.443 131.012 586.443 164.53C586.443 189.493 577.417 208.875 558.038 225.524C551.723 230.95 544.58 235.827 536.947 240.34C541.369 242.332 545.782 244.37 550.154 246.483C555.743 242.857 561.06 238.98 565.972 234.76C587.939 215.887 598.618 192.914 598.618 164.53C598.618 126.28 579.869 102.724 564.14 89.6989C545.993 74.6708 522.173 65.6953 500.412 65.6841V65.6836C500.405 65.6836 500.398 65.6839 500.391 65.6839C500.385 65.6839 500.378 65.6836 500.371 65.6836V65.6841C460.75 65.7057 402.165 97.122 402.165 164.53C402.165 192.914 412.844 215.887 434.811 234.76C453.705 250.991 478.478 262.227 502.435 273.092C524.732 283.205 545.794 292.756 561.481 305.692C578.435 319.671 586.331 335.539 586.331 355.63H598.506C598.506 303.294 552.223 282.303 507.463 262.004Z" fill="#D7F05A"></path><path d="M588.879 282.064C569.509 265.375 544.285 254.285 519.89 243.56C498.064 233.964 477.449 224.901 462.205 212.549C445.803 199.261 438.165 184.002 438.165 164.53C438.165 139.541 449.906 124.658 459.755 116.573C471.149 107.219 486.339 101.634 500.392 101.629C514.445 101.634 529.634 107.219 541.028 116.573C550.877 124.658 562.618 139.541 562.618 164.53C562.618 184.002 554.979 199.261 538.578 212.549C530.883 218.784 521.818 224.179 511.922 229.229C515.637 230.908 519.487 232.613 523.47 234.365C524.323 234.74 525.177 235.115 526.031 235.491C533.311 231.393 540.111 226.977 546.243 222.01C565.454 206.444 574.793 187.642 574.793 164.53C574.793 112.769 531.312 89.4741 500.412 89.4536V89.4531C500.405 89.4531 500.398 89.4534 500.392 89.4534C500.385 89.4534 500.378 89.4531 500.371 89.4531V89.4536C469.471 89.4741 425.99 112.769 425.99 164.53C425.99 187.642 435.328 206.444 454.54 222.01C471.054 235.389 492.395 244.772 514.99 254.706C538.565 265.07 562.942 275.788 580.931 291.288C600.87 308.467 610.156 328.913 610.156 355.63H622.331C622.331 325.523 611.389 301.459 588.879 282.064Z" fill="#D7F05A"></path><path d="M496.242 281.688C470.709 270.292 444.307 258.507 424.078 240.525C401.569 220.516 390.627 195.609 390.627 164.382C390.627 144.406 394.797 126.478 403.021 111.097C410.052 97.9445 420.051 86.5947 432.739 77.3624C456.347 60.1844 483.919 54.0894 500.357 54.0894V41.9141C482.092 41.9141 451.548 48.6194 425.575 67.5176C404.078 83.1597 378.452 112.662 378.452 164.382C378.452 199.289 390.731 227.172 415.989 249.625C437.626 268.858 464.902 281.033 491.28 292.807C510.783 301.512 529.204 309.734 542.418 319.819C556.199 330.338 562.619 341.718 562.619 355.629H574.794C574.794 316.75 536.638 299.719 496.242 281.688Z" fill="#D7F05A"></path><path d="M439.302 305.692C446.004 300.166 453.694 295.259 462.035 290.66C457.709 288.574 453.373 286.404 449.068 284.125C422.466 300.176 402.277 321.067 402.277 355.631H414.452C414.452 335.54 422.348 319.671 439.302 305.692Z" fill="#D7F05A"></path><path d="M419.851 291.286C425.438 286.473 431.642 282.121 438.245 278.097C434.366 275.821 430.541 273.439 426.804 270.93C421.563 274.368 416.561 278.05 411.904 282.063C389.394 301.458 378.452 325.522 378.452 355.629H390.627C390.627 328.911 399.913 308.465 419.851 291.286Z" fill="#D7F05A"></path><path d="M694.571 193.499H669.898L666.185 204.641H653.008L674.674 142.738H689.796L711.551 204.641H698.286L694.571 193.499ZM690.769 182.091L682.28 156.8L673.79 182.091H690.769Z" fill="white"></path><path d="M727.998 142.738V204.641H715.793V142.738H727.998Z" fill="white"></path><path d="M770.267 154.412V169.092H794.321V180.764H770.267V204.641H758.063V142.738H795.029V154.412H770.267Z" fill="white"></path><path d="M799.36 182.534C799.36 169.357 809.707 159.188 822.707 159.188C835.706 159.188 846.14 169.357 846.14 182.534C846.14 195.711 835.706 205.88 822.707 205.88C809.707 205.88 799.36 195.711 799.36 182.534ZM834.732 182.534C834.732 175.371 829.516 170.331 822.707 170.331C815.985 170.331 810.768 175.371 810.768 182.534C810.768 189.697 815.985 194.738 822.707 194.738C829.516 194.738 834.732 189.697 834.732 182.534Z" fill="white"></path><path d="M877.268 159.539V172.274C871.342 171.566 863.827 174.219 863.827 183.505V204.64H852.419V160.423H863.827V168.029C866.126 162.015 871.696 159.539 877.268 159.539Z" fill="white"></path><path d="M667.156 217.906V279.809H654.954V217.906H667.156Z" fill="white"></path><path d="M717.65 252.657V279.806H706.242V254.073C706.242 248.059 702.617 244.964 697.487 244.964C691.916 244.964 687.76 248.236 687.76 255.929V279.806H676.352V235.59H687.76V240.542C690.412 236.562 695.011 234.352 700.936 234.352C710.311 234.352 717.65 240.896 717.65 252.657Z" fill="white"></path><path d="M770.531 217.906V279.809H759.124V274.592C755.94 278.659 751.253 281.047 744.798 281.047C732.948 281.047 723.22 270.877 723.22 257.701C723.22 244.524 732.948 234.354 744.798 234.354C751.253 234.354 755.94 236.742 759.124 240.811V217.906H770.531ZM759.124 257.701C759.124 250.272 753.906 245.232 746.92 245.232C739.846 245.232 734.628 250.272 734.628 257.701C734.628 265.129 739.846 270.17 746.92 270.17C753.906 270.17 759.124 265.129 759.124 257.701Z" fill="white"></path><path d="M777.87 223.298C777.87 219.496 781.054 216.223 784.856 216.223C788.748 216.223 791.931 219.496 791.931 223.298C791.931 227.101 788.748 230.284 784.856 230.284C781.054 230.284 777.87 227.101 777.87 223.298ZM779.198 235.59H790.605V279.806H779.198V235.59Z" fill="white"></path><path d="M840.922 235.59L824.12 279.806H811.12L794.319 235.59H806.875L817.575 266.542L828.365 235.59H840.922Z" fill="white"></path><path d="M843.308 223.298C843.308 219.496 846.491 216.223 850.294 216.223C854.185 216.223 857.369 219.496 857.369 223.298C857.369 227.101 854.185 230.284 850.294 230.284C846.491 230.284 843.308 227.101 843.308 223.298ZM844.635 235.59H856.042V279.806H844.635V235.59Z" fill="white"></path><path d="M909.631 217.906V279.809H898.223V274.592C895.04 278.659 890.353 281.047 883.897 281.047C872.048 281.047 862.32 270.877 862.32 257.701C862.32 244.524 872.048 234.354 883.897 234.354C890.353 234.354 895.04 236.742 898.223 240.811V217.906H909.631ZM898.223 257.701C898.223 250.272 893.006 245.232 886.02 245.232C878.946 245.232 873.728 250.272 873.728 257.701C873.728 265.129 878.946 270.17 886.02 270.17C893.006 270.17 898.223 265.129 898.223 257.701Z" fill="white"></path><path d="M958.886 235.59V279.806H947.478V274.855C944.825 278.834 940.227 281.045 934.302 281.045C924.927 281.045 917.588 274.501 917.588 262.739V235.59H928.996V261.325C928.996 267.337 932.622 270.433 937.75 270.433C943.322 270.433 947.478 267.16 947.478 259.467V235.59H958.886Z" fill="white"></path><path d="M1012.56 235.59V279.806H1001.16V274.589C997.972 278.568 993.197 281.044 986.742 281.044C974.981 281.044 965.252 270.875 965.252 257.699C965.252 244.521 974.981 234.352 986.742 234.352C993.197 234.352 997.972 236.828 1001.16 240.808V235.59H1012.56ZM1001.16 257.699C1001.16 250.27 995.939 245.229 988.864 245.229C981.877 245.229 976.66 250.27 976.66 257.699C976.66 265.126 981.877 270.168 988.864 270.168C995.939 270.168 1001.16 265.126 1001.16 257.699Z" fill="white"></path><path d="M1021.14 215.25H1032.55V279.806H1021.14V215.25Z" fill="white"></path><path d="M676.442 333.484H667.156V354.973H654.954V293.07H679.715C691.123 293.07 700.32 302.267 700.32 313.587C700.32 321.369 695.456 328.355 688.381 331.627L702.088 354.973H688.912L676.442 333.484ZM667.156 322.784H679.715C684.313 322.784 688.115 318.716 688.115 313.587C688.115 308.457 684.313 304.478 679.715 304.478H667.156V322.784Z" fill="white"></path><path d="M705.623 298.462C705.623 294.66 708.807 291.387 712.61 291.387C716.501 291.387 719.684 294.66 719.684 298.462C719.684 302.265 716.501 305.448 712.61 305.448C708.807 305.448 705.623 302.265 705.623 298.462ZM706.95 310.754H718.358V354.97H706.95V310.754Z" fill="white"></path><path d="M772.036 310.758V352.852C772.036 367.355 760.628 373.9 748.955 373.9C739.492 373.9 731.887 370.274 727.996 363.11L737.724 357.539C739.581 360.988 742.5 363.73 749.309 363.73C756.472 363.73 760.894 359.838 760.894 352.852V348.076C757.798 352.233 753.022 354.797 746.744 354.797C734.186 354.797 724.725 344.627 724.725 332.158C724.725 319.778 734.186 309.52 746.744 309.52C753.022 309.52 757.798 312.084 760.894 316.24V310.758H772.036ZM760.894 332.158C760.894 325.173 755.676 320.132 748.512 320.132C741.349 320.132 736.133 325.173 736.133 332.158C736.133 339.233 741.349 344.274 748.512 344.274C755.676 344.274 760.894 339.233 760.894 332.158Z" fill="white"></path><path d="M821.91 327.824V354.973H810.502V329.239C810.502 323.226 806.876 320.131 801.748 320.131C796.176 320.131 792.02 323.403 792.02 331.096V354.973H780.612V293.07H792.02V315.709C794.673 311.729 799.272 309.518 805.196 309.518C814.57 309.518 821.91 316.063 821.91 327.824Z" fill="white"></path><path d="M845.167 321.722V340.115C845.167 344.891 848.616 344.979 855.159 344.625V354.972C839.153 356.741 833.759 352.054 833.759 340.115V321.722H826.065V310.756H833.759V301.824L845.167 298.375V310.756H855.159V321.722H845.167Z" fill="white"></path><path d="M893.804 342.064C893.804 351.614 885.492 356.212 876.029 356.212C867.186 356.212 860.641 352.498 857.458 345.689L867.363 340.117C868.6 343.743 871.607 345.866 876.029 345.866C879.654 345.866 882.13 344.627 882.13 342.064C882.13 335.607 859.314 339.145 859.314 323.581C859.314 314.561 867.009 309.52 876.118 309.52C883.28 309.52 889.471 312.793 892.919 318.894L883.192 324.199C881.865 321.37 879.388 319.689 876.118 319.689C873.287 319.689 870.988 320.927 870.988 323.315C870.988 329.859 893.804 325.792 893.804 342.064Z" fill="white"></path></svg>